<?xml version="1.0" standalone="no"?>
<!DOCTYPE svg PUBLIC "-//W3C//DTD SVG 20010904//EN"
 "http://www.w3.org/TR/2001/REC-SVG-20010904/DTD/svg10.dtd">
<svg version="1.0" xmlns="http://www.w3.org/2000/svg"
 width="512.000000pt" height="512.000000pt" viewBox="0 0 512.000000 512.000000"
 preserveAspectRatio="xMidYMid meet">

<g transform="translate(0.000000,512.000000) scale(0.100000,-0.100000)"
fill="#000000" stroke="none">
<path d="M1374 5110 c-362 -38 -692 -203 -950 -473 -210 -219 -344 -489 -405
-812 -17 -87 -24 -1411 -9 -1572 66 -722 628 -1301 1343 -1385 l97 -12 0 -363
c0 -310 2 -368 16 -403 26 -65 89 -99 161 -85 29 5 67 36 197 163 239 232 401
348 651 468 154 73 240 105 394 145 189 49 280 60 577 69 434 14 589 48 852
185 142 74 248 152 366 271 215 214 363 484 421 767 33 163 36 277 32 989 -5
745 -5 749 -55 933 -113 412 -409 768 -797 960 -192 94 -326 134 -527 155
-109 11 -2256 11 -2364 0z m2354 -171 c369 -40 704 -226 926 -514 144 -186
216 -342 268 -576 23 -103 23 -108 23 -854 0 -678 -2 -759 -18 -845 -58 -307
-217 -586 -449 -788 -198 -172 -472 -295 -715 -321 -54 -6 -217 -15 -363 -21
-434 -16 -701 -80 -1035 -247 -236 -118 -421 -251 -623 -447 l-122 -119 0 595
0 595 -26 27 c-38 37 -84 36 -118 -5 -26 -30 -26 -31 -26 -210 l0 -180 -62 6
c-106 11 -298 63 -401 110 -417 186 -709 557 -794 1005 -16 86 -18 167 -18
845 0 746 0 751 23 854 52 234 124 390 268 576 217 281 557 473 909 513 117
14 2232 15 2353 1z"/>
<path d="M1384 3320 c-87 -18 -178 -82 -227 -161 -8 -14 -23 -52 -33 -84 -44
-152 34 -321 182 -394 64 -33 181 -40 250 -17 102 34 192 129 222 232 52 180
-60 371 -245 419 -62 16 -87 17 -149 5z m131 -179 c95 -44 131 -141 85 -231
-28 -56 -72 -83 -139 -87 -188 -12 -249 240 -77 318 52 23 80 23 131 0z"/>
<path d="M2494 3320 c-102 -21 -203 -103 -247 -198 -17 -36 -22 -67 -22 -132
0 -76 3 -92 33 -152 36 -73 87 -124 161 -160 66 -33 216 -33 282 0 74 36 125
87 161 160 30 60 33 76 33 152 0 102 -21 155 -89 228 -77 82 -206 124 -312
102z m131 -179 c168 -76 118 -321 -65 -321 -140 0 -221 166 -133 271 30 35 94
69 133 69 14 0 43 -9 65 -19z"/>
<path d="M3583 3315 c-182 -51 -292 -242 -241 -419 30 -103 120 -198 222 -232
69 -23 186 -16 250 17 217 107 259 390 85 556 -77 72 -214 107 -316 78z m153
-174 c126 -57 137 -230 18 -299 -51 -30 -135 -27 -182 7 -91 64 -95 198 -8
267 59 47 107 54 172 25z"/>
</g>
</svg>
